<?xml version="1.0" encoding="UTF-8"?>
<svg id="Layer_2" data-name="Layer 2" xmlns="http://www.w3.org/2000/svg" viewBox="0 0 104.65 104.66">
  <defs>
    <style>
      .cls-1 {
        fill: #fff;
      }
    </style>
  </defs>
  <g id="Layer_1-2" data-name="Layer 1">
    <g>
      <path class="cls-1" d="M79.87,55.03c-1.01-1.41-2.43-2.48-4.25-3.23-.21-.08-.42-.16-.64-.24,1.38-.74,2.48-1.68,3.29-2.84.94-1.34,1.42-2.91,1.42-4.69,0-2.71-1.13-4.91-3.38-6.58-2.25-1.67-5.66-2.51-10.23-2.51h-17.78v14.44l-13.46-14.44h-10.83l14.19,15.38-14.94,19.39h11.42l9.96-12.62,3.65,3.91v8.71h18.77c4.67,0,8.22-.84,10.65-2.51,2.43-1.67,3.65-4.01,3.65-7.03,0-2.02-.51-3.73-1.51-5.14ZM64.79,42.05c1.66,0,2.9.27,3.72.82.83.55,1.24,1.38,1.24,2.51s-.41,1.97-1.24,2.53c-.83.56-2.07.84-3.72.84h-6.75v-6.7h6.75ZM70.13,61.74c-.88.58-2.16.87-3.85.87h-8.24v-7.05h8.24c1.69,0,2.97.29,3.85.87.88.58,1.32,1.47,1.32,2.66s-.44,2.08-1.32,2.66Z"/>
      <g>
        <path class="cls-1" d="M67.49,8.96l2.49-5.92,1.66.7-2.49,5.92-1.66-.7ZM69.54,8.28l.7-1.92,3.69-1.66,1.84.78-3.69,1.68-1.34.58-1.2.54ZM71.47,10.63l-.9-3.25,1.58-.71,1.26,4.78-1.94-.82Z"/>
        <path class="cls-1" d="M73.62,11.65l3.28-5.52,4.33,2.57-.72,1.21-2.78-1.65-1.85,3.11,2.89,1.72-.72,1.21-4.43-2.63ZM76.38,10.29l.69-1.17,2.56,1.52-.69,1.17-2.56-1.52Z"/>
        <path class="cls-1" d="M78.73,14.66l4.1-4.94,1.15.96-.74,5.06-.61-.5,4.78-1.71,1.15.96-4.09,4.95-1.28-1.07,2.47-3,.22.18-3.56,1.26-.62-.52.54-3.77.27.22-2.48,2.98-1.29-1.07Z"/>
        <path class="cls-1" d="M85.15,20.32l4.69-4.39,1.24,1.33-4.69,4.39-1.24-1.33Z"/>
        <path class="cls-1" d="M88.01,23.54l3.94-3.05-1.21-1.56,1.14-.88,3.53,4.54-1.14.88-1.2-1.55-3.94,3.05-1.11-1.43Z"/>
        <path class="cls-1" d="M90.83,27.32l5.55-3.23,1.35,2.32c.35.6.5,1.14.45,1.62-.05.48-.3.85-.76,1.12-.3.17-.6.25-.89.23s-.56-.13-.81-.32c-.25-.19-.46-.44-.65-.75l.24.05c.22.38.35.74.4,1.07.04.33,0,.63-.13.9-.13.26-.35.49-.67.67-.46.27-.92.31-1.38.12-.45-.19-.88-.63-1.28-1.32l-1.44-2.47ZM91.41,27.52l1.2,2.07c.31.53.64.89.98,1.06.34.17.72.14,1.12-.09.4-.23.61-.54.62-.92.02-.39-.12-.85-.44-1.38l-1.23-2.12.35-.2,1.13,1.94c.28.48.59.8.93.96.34.16.69.13,1.06-.09.37-.21.56-.5.59-.88s-.09-.8-.37-1.28l-1.1-1.9-4.85,2.82Z"/>
        <path class="cls-1" d="M94.05,33.17l5.96-2.4.86,2.14c.3.75.36,1.41.18,1.97-.18.57-.59.98-1.22,1.23-.41.17-.81.21-1.18.14-.38-.07-.72-.25-1.02-.55s-.56-.69-.76-1.19l-.76-1.9.28.11-2.15.87-.17-.43ZM95.71,37.31l1.54-2.42.2.49-1.54,2.42-.2-.49ZM96.35,32.75l.13-.28.76,1.9c.26.64.6,1.07,1.01,1.29s.88.22,1.39.02c.52-.21.85-.54,1-.98.15-.45.09-.99-.17-1.63l-.77-1.9.29.11-3.65,1.47Z"/>
        <path class="cls-1" d="M96.04,38.12l6.94,1.32.11.45-5.52,4.42-.12-.49,5.27-4.19.05.2-6.62-1.22-.12-.49ZM98.06,38.74l.42.06.93,3.73-.34.25-1-4.03Z"/>
        <path class="cls-1" d="M97.7,45.23l6.39-.62.04.39-5.37,5.12-.02-.21,5.82-.57.04.47-6.39.62-.04-.38,5.37-5.13.02.21-5.82.56-.05-.46Z"/>
        <path class="cls-1" d="M98.25,52.44l6.41.38-.15,2.54c-.04.68-.21,1.26-.52,1.76s-.71.87-1.21,1.13-1.06.36-1.68.33c-.62-.04-1.17-.21-1.63-.53-.47-.31-.82-.73-1.06-1.26s-.35-1.13-.31-1.81l.15-2.54ZM98.64,52.93l-.12,2.03c-.04.6.05,1.14.26,1.6s.52.82.92,1.09.88.42,1.42.45c.54.03,1.03-.06,1.46-.28.43-.22.78-.54,1.05-.98.26-.43.42-.95.45-1.55l.12-2.03-5.57-.33Z"/>
        <path class="cls-1" d="M98.08,62.65l1.28.31-.09.1-.4-1.3.69-.22.38,1.36-.2-.05.94-1.05.53.5-.95.99-.04-.13,1.29.29-.16.68-1.28-.31.1-.1.41,1.31-.7.2-.38-1.35.2.05-.94,1.04-.53-.49.94-1,.04.13-1.28-.29.16-.68Z"/>
        <path class="cls-1" d="M94.14,71.21l3.25-.92.72,1.58-4.77,1.29.8-1.95ZM95.79,67.23l5.93,2.45-.69,1.66-5.93-2.45.69-1.66ZM96.48,69.27l1.92.69,1.68,3.68-.76,1.85-1.7-3.68-.59-1.33-.55-1.2Z"/>
        <path class="cls-1" d="M93.15,73.34l5.54,3.24-2.54,4.35-1.21-.71,1.64-2.8-3.12-1.83-1.7,2.9-1.21-.71,2.6-4.45ZM94.53,76.09l1.17.69-1.51,2.57-1.17-.69,1.5-2.57Z"/>
        <path class="cls-1" d="M90.17,78.47l4.97,4.07-.95,1.16-5.06-.71.5-.61,1.74,4.77-.95,1.16-4.98-4.06,1.06-1.29,3.01,2.45-.18.22-1.29-3.56.51-.62,3.77.52-.22.27-3-2.46,1.06-1.3Z"/>
        <path class="cls-1" d="M84.56,84.93l4.42,4.66-1.32,1.25-4.42-4.66,1.32-1.25Z"/>
        <path class="cls-1" d="M81.33,87.84l3.08,3.92,1.55-1.22.89,1.13-4.52,3.55-.89-1.13,1.54-1.21-3.08-3.92,1.43-1.12Z"/>
        <path class="cls-1" d="M77.57,90.67l3.26,5.53-2.31,1.36c-.6.35-1.13.5-1.61.46-.48-.04-.85-.29-1.12-.75-.18-.3-.25-.59-.23-.88.02-.29.13-.56.32-.81.19-.25.44-.47.75-.65l-.05.24c-.38.22-.74.36-1.07.41-.33.05-.63,0-.9-.12-.26-.13-.49-.35-.67-.67-.27-.46-.32-.92-.13-1.38.19-.45.62-.88,1.31-1.29l2.47-1.45ZM77.37,91.26l-2.06,1.21c-.53.31-.88.64-1.06.99-.17.35-.14.72.1,1.12.23.4.54.6.93.62.39.02.85-.13,1.38-.44l2.11-1.24.21.35-1.94,1.14c-.48.28-.8.59-.95.93-.15.34-.12.69.09,1.06.21.36.51.56.88.59.37.03.8-.1,1.28-.38l1.89-1.11-2.85-4.84Z"/>
        <path class="cls-1" d="M67.61,95.62l2.43,1.52-.49.2-2.43-1.52.49-.2ZM71.73,93.93l2.44,5.94-2.13.88c-.75.31-1.41.37-1.97.19-.57-.18-.98-.58-1.24-1.22-.17-.41-.22-.81-.15-1.18s.25-.72.54-1.03c.29-.31.68-.56,1.18-.77l1.89-.78-.11.28-.88-2.15.43-.18ZM72.17,96.23l.28.12-1.89.78c-.64.26-1.07.6-1.28,1.02-.21.42-.22.88,0,1.39.21.52.54.84.99.99.45.14.99.08,1.63-.18l1.89-.78-.11.29-1.49-3.64Z"/>
        <path class="cls-1" d="M66.84,95.94l-1.27,6.96-.45.12-4.46-5.49.49-.12,4.22,5.24-.2.05,1.17-6.63.49-.13ZM66.24,97.96l-.05.42-3.72.96-.25-.34,4.03-1.03Z"/>
        <path class="cls-1" d="M59.73,97.65l.66,6.39-.39.04-5.16-5.34.21-.02.6,5.81-.46.05-.67-6.39.38-.04,5.17,5.34-.21.02-.6-5.81.46-.05Z"/>
        <path class="cls-1" d="M52.53,98.24l-.34,6.41-2.54-.13c-.68-.04-1.27-.2-1.76-.51-.5-.3-.88-.7-1.14-1.2-.26-.5-.37-1.06-.34-1.68.03-.62.2-1.17.51-1.63.31-.47.73-.83,1.26-1.07.53-.25,1.13-.35,1.81-.32l2.54.13ZM52.04,98.64l-2.03-.11c-.6-.03-1.14.06-1.59.27-.46.21-.82.52-1.09.93s-.41.88-.44,1.42c-.03.54.07,1.03.29,1.46.22.43.55.78.98,1.04.43.26.95.41,1.56.44l2.03.11.3-5.57Z"/>
        <path class="cls-1" d="M42.29,98.14l-.3,1.28-.1-.09,1.3-.41.22.69-1.36.39.04-.2,1.06.93-.5.54-.99-.94.13-.04-.28,1.29-.68-.15.3-1.29.1.1-1.31.42-.21-.7,1.35-.39-.04.2-1.05-.93.49-.53,1,.93-.13.04.28-1.28.68.15Z"/>
        <path class="cls-1" d="M35.69,96.59l-.67,1.93-3.67,1.71-1.85-.75,3.67-1.73,1.33-.6,1.19-.56ZM33.73,94.26l.94,3.24-1.57.73-1.33-4.76,1.96.79ZM37.73,95.88l-2.41,5.95-1.67-.67,2.41-5.95,1.67.67Z"/>
        <path class="cls-1" d="M31.56,93.27l-3.21,5.56-4.36-2.52.7-1.22,2.8,1.62,1.81-3.13-2.91-1.68.7-1.22,4.47,2.58ZM28.82,94.67l-.68,1.18-2.58-1.49.68-1.18,2.58,1.49Z"/>
        <path class="cls-1" d="M26.41,90.33l-4.04,4.99-1.16-.94.68-5.07.61.5-4.76,1.77-1.16-.94,4.03-5,1.3,1.05-2.43,3.03-.22-.18,3.55-1.31.63.51-.5,3.78-.27-.22,2.44-3.02,1.31,1.06Z"/>
        <path class="cls-1" d="M19.93,84.77l-4.63,4.45-1.26-1.31,4.63-4.45,1.26,1.31Z"/>
        <path class="cls-1" d="M17.02,81.57l-3.9,3.1,1.23,1.54-1.13.9-3.58-4.5,1.13-.9,1.22,1.54,3.9-3.1,1.13,1.42Z"/>
        <path class="cls-1" d="M14.16,77.82l-5.51,3.3-1.38-2.3c-.35-.59-.51-1.13-.47-1.61.04-.48.29-.86.75-1.13.3-.18.59-.26.88-.24s.56.12.81.31c.25.19.47.44.65.75l-.24-.05c-.23-.38-.36-.73-.41-1.07-.05-.33-.01-.63.12-.9.13-.26.35-.49.66-.68.46-.28.92-.32,1.38-.14.46.18.89.62,1.3,1.3l1.47,2.46ZM13.57,77.63l-1.23-2.05c-.32-.53-.65-.88-1-1.05-.35-.17-.72-.13-1.12.1-.39.24-.6.55-.61.93-.02.39.14.84.45,1.37l1.26,2.1-.35.21-1.15-1.93c-.29-.48-.6-.79-.94-.95-.34-.15-.69-.12-1.06.1-.36.22-.56.51-.58.88-.03.37.1.8.39,1.27l1.13,1.88,4.82-2.88Z"/>
        <path class="cls-1" d="M10.86,72.02l-5.92,2.48-.89-2.12c-.31-.75-.38-1.4-.21-1.97.17-.57.58-.99,1.21-1.25.41-.17.81-.22,1.18-.16.38.07.72.25,1.03.53.31.29.57.68.78,1.18l.79,1.89-.28-.11,2.14-.9.18.43ZM8.57,72.47l-.12.28-.79-1.89c-.27-.64-.61-1.06-1.03-1.27-.42-.21-.88-.21-1.39,0-.51.21-.84.55-.98.99-.14.45-.08.99.19,1.63l.79,1.89-.29-.11,3.63-1.52ZM9.14,67.9l-1.5,2.44-.21-.49,1.5-2.44.21.49Z"/>
        <path class="cls-1" d="M8.8,67.1l-6.96-1.22-.12-.45,5.46-4.49.13.49-5.22,4.26-.05-.2,6.63,1.13.13.49ZM6.78,66.52l-.42-.05-.98-3.72.34-.25,1.06,4.02Z"/>
        <path class="cls-1" d="M7.06,60.01l-6.38.7-.04-.39,5.31-5.19.02.21-5.81.64-.05-.46,6.38-.71.04.38-5.3,5.2-.02-.21,5.81-.64.05.46Z"/>
        <path class="cls-1" d="M6.42,52.82l-6.42-.3.12-2.54c.03-.68.2-1.27.5-1.77.3-.5.7-.88,1.19-1.14.5-.26,1.06-.38,1.68-.35.62.03,1.17.2,1.64.5.47.31.83.72,1.08,1.25.25.53.36,1.13.33,1.81l-.12,2.54ZM6.02,52.33l.1-2.03c.03-.61-.07-1.14-.28-1.59-.22-.46-.53-.82-.94-1.08-.41-.26-.88-.41-1.43-.43-.54-.03-1.03.07-1.46.3-.43.23-.77.55-1.03.99-.26.43-.4.95-.43,1.56l-.09,2.04,5.57.26Z"/>
        <path class="cls-1" d="M6.45,42.57l-1.28-.29.09-.1.42,1.29-.69.23-.4-1.36.2.04-.93,1.06-.54-.49.93-1,.05.13-1.29-.27.15-.68,1.29.29-.1.1-.43-1.31.7-.21.4,1.35-.2-.04.93-1.06.53.48-.93,1.01-.04-.13,1.28.27-.15.68Z"/>
        <path class="cls-1" d="M8.68,37.99l-5.97-2.38.66-1.67,5.97,2.37-.66,1.67ZM7.96,35.96l-1.93-.66-1.73-3.66.74-1.86,1.75,3.66.61,1.33.56,1.19ZM10.28,33.98l-3.24.96-.74-1.57,4.76-1.36-.78,1.96Z"/>
        <path class="cls-1" d="M11.24,31.83l-5.58-3.17,2.49-4.38,1.22.69-1.6,2.82,3.14,1.79,1.66-2.92,1.22.69-2.55,4.48ZM9.82,29.11l-1.18-.67,1.47-2.59,1.18.67-1.47,2.59Z"/>
        <path class="cls-1" d="M14.16,26.67l-5.02-4.01.93-1.17,5.07.65-.49.62-1.8-4.75.93-1.17,5.03,3.99-1.04,1.3-3.04-2.41.18-.22,1.33,3.54-.5.63-3.78-.47.22-.27,3.03,2.42-1.05,1.31Z"/>
        <path class="cls-1" d="M19.68,20.13l-4.48-4.6,1.3-1.27,4.48,4.6-1.3,1.27Z"/>
        <path class="cls-1" d="M22.86,17.2l-3.13-3.88-1.53,1.24-.9-1.12,4.48-3.61.9,1.12-1.53,1.23,3.13,3.88-1.41,1.14Z"/>
        <path class="cls-1" d="M26.6,14.31l-3.33-5.49,2.29-1.39c.59-.36,1.13-.52,1.61-.48.48.04.86.28,1.13.74.18.3.26.59.25.88-.02.29-.12.56-.31.81-.19.25-.43.47-.74.66l.05-.24c.38-.23.73-.37,1.06-.42.33-.05.63-.02.9.11.27.13.49.34.68.66.28.46.33.92.15,1.38-.18.46-.61.89-1.29,1.3l-2.45,1.48ZM26.79,13.72l2.05-1.24c.53-.32.88-.65,1.04-1,.17-.35.13-.72-.11-1.12-.24-.39-.55-.59-.94-.61-.39-.01-.84.14-1.37.46l-2.1,1.27-.21-.34,1.92-1.17c.48-.29.79-.6.94-.95.15-.34.12-.7-.11-1.06-.22-.36-.51-.55-.89-.58-.37-.02-.8.11-1.27.4l-1.87,1.14,2.91,4.8Z"/>
        <path class="cls-1" d="M32.39,10.98l-2.52-5.91,2.12-.9c.74-.32,1.4-.39,1.97-.22.57.17.99.57,1.26,1.2.17.41.23.81.16,1.18-.07.38-.24.72-.53,1.03-.29.31-.68.57-1.17.78l-1.88.8.11-.29.91,2.14-.43.18ZM31.92,8.69l-.28-.12,1.88-.8c.64-.27,1.06-.62,1.27-1.04.21-.42.21-.89,0-1.39-.22-.51-.55-.84-1-.98-.45-.14-.99-.07-1.63.2l-1.88.8.1-.29,1.54,3.62ZM36.49,9.24l-2.45-1.49.49-.21,2.45,1.49-.49.21Z"/>
        <path class="cls-1" d="M37.29,8.89l1.18-6.97.45-.12,4.52,5.43-.49.13-4.29-5.19.19-.05-1.09,6.64-.49.13ZM37.86,6.87l.05-.42,3.71-1,.25.34-4.01,1.08Z"/>
        <path class="cls-1" d="M44.36,7.1l-.74-6.38.39-.04,5.22,5.27-.21.02-.68-5.8.46-.05.75,6.38-.38.04-5.23-5.27.21-.02.68,5.8-.46.05Z"/>
        <path class="cls-1" d="M51.54,6.42l.26-6.42,2.54.1c.68.03,1.27.19,1.77.49.5.29.88.69,1.15,1.18.26.49.38,1.05.36,1.68-.02.62-.19,1.17-.49,1.64-.3.47-.72.83-1.24,1.09-.52.25-1.13.37-1.8.34l-2.54-.1ZM52.02,6.01l2.04.08c.6.02,1.13-.07,1.59-.29.46-.22.81-.54,1.08-.94.26-.41.4-.88.42-1.43.02-.54-.08-1.03-.31-1.46-.23-.43-.56-.77-1-1.03-.44-.26-.96-.4-1.56-.42l-2.03-.08-.23,5.57Z"/>
        <path class="cls-1" d="M61.76,6.38l.28-1.28.1.09-1.29.43-.23-.69,1.35-.41-.04.2-1.07-.92.49-.54,1,.92-.13.05.27-1.29.68.15-.28,1.29-.1-.1,1.3-.44.22.69-1.34.41.04-.2,1.06.92-.48.54-1.01-.92.13-.04-.26,1.29-.68-.14Z"/>
      </g>
    </g>
  </g>
</svg>