<?xml version="1.0" encoding="UTF-8"?>
<svg id="Layer_1" xmlns="http://www.w3.org/2000/svg" version="1.1" viewBox="0 0 16 16">
  <!-- Generator: Adobe Illustrator 29.1.0, SVG Export Plug-In . SVG Version: 2.1.0 Build 142)  -->
  <defs>
    <style>
      .st0 {
        fill: #1439fb;
      }
    </style>
  </defs>
  <path class="st0" d="M15.1,8.7c-.3-.4-.6-.6-1.1-.8,0,0-.1,0-.2,0,.4-.2.6-.4.9-.7.2-.3.4-.7.4-1.2,0-.7-.3-1.3-.9-1.7-.6-.4-1.5-.6-2.6-.6h-4.6v3.7l-3.5-3.7H.7l3.7,4L.5,12.5h2.9l2.6-3.3.9,1v2.2h4.8c1.2,0,2.1-.2,2.8-.6.6-.4.9-1,.9-1.8s-.1-1-.4-1.3h0ZM11.2,5.3c.4,0,.7,0,1,.2s.3.4.3.6-.1.5-.3.7c-.2.1-.5.2-1,.2h-1.7v-1.7s1.7,0,1.7,0ZM12.6,10.4c-.2.1-.6.2-1,.2h-2.1v-1.8h2.1c.4,0,.8,0,1,.2.2.1.3.4.3.7s-.1.5-.3.7h0Z"/>
</svg>