<?xml version="1.0" encoding="UTF-8"?>
<svg id="Layer_1" data-name="Layer 1" xmlns="http://www.w3.org/2000/svg" viewBox="0 0 500 351.57">
  <defs>
    <style>
      .cls-1 {
        fill: #1439fb;
      }
    </style>
  </defs>
  <path class="cls-1" d="M437.06,194.17c-6.86-9.56-16.48-16.87-28.84-21.93-1.41-.58-2.85-1.11-4.32-1.62,9.37-5.01,16.84-11.44,22.37-19.29,6.41-9.11,9.61-19.73,9.61-31.88,0-18.44-7.65-33.34-22.94-44.7-15.3-11.35-38.46-17.04-69.49-17.04h-120.77v98.1l-91.42-98.1H57.71l96.41,104.45-101.47,131.7h77.59l67.63-85.73,24.8,26.57v59.16h127.52c31.71,0,55.83-5.68,72.36-17.04,16.53-11.35,24.79-27.27,24.79-47.73,0-13.71-3.43-25.35-10.29-34.92ZM334.67,105.95c11.24,0,19.68,1.86,25.3,5.57,5.62,3.71,8.43,9.39,8.43,17.04s-2.81,13.38-8.43,17.2c-5.62,3.83-14.06,5.73-25.3,5.73h-45.88v-45.54h45.88ZM370.94,239.71c-5.96,3.94-14.67,5.9-26.15,5.9h-56v-47.9h56c11.47,0,20.18,1.97,26.15,5.9,5.96,3.94,8.94,9.95,8.94,18.05s-2.98,14.12-8.94,18.05Z"/>
</svg>